<svg id="Capa_1" enable-background="new 0 0 511.995 511.995" height="512" viewBox="0 0 511.995 511.995" width="512" xmlns="http://www.w3.org/2000/svg"><g><circle cx="255.998" cy="255.998" fill="#fed402" r="155.312"/><path d="m150.686 255.998c0-77.264 56.443-141.348 130.331-153.306-8.14-1.317-16.507-2.006-25.019-2.006-85.776 0-155.312 69.535-155.312 155.312s69.535 155.312 155.312 155.312c8.512 0 16.879-.689 25.019-2.006-73.889-11.958-130.331-76.042-130.331-153.306z" fill="#fac600"/><g><g fill="#fed402"><g><circle cx="178.72" cy="69.465" r="15.531"/><circle cx="333.275" cy="442.592" r="15.531"/></g><g><circle cx="69.434" cy="178.751" r="15.531"/><circle cx="442.561" cy="333.306" r="15.531"/></g><g><circle cx="69.434" cy="333.306" r="15.531"/><circle cx="442.561" cy="178.751" r="15.531"/></g><g><circle cx="178.72" cy="442.592" r="15.531"/><circle cx="333.275" cy="69.465" r="15.531"/></g><g><path d="m255.998 7.5c8.578 0 15.531 6.954 15.531 15.531v31.062c0 8.578-6.954 15.531-15.531 15.531-8.578 0-15.531-6.954-15.531-15.531v-31.062c-.001-8.577 6.953-15.531 15.531-15.531z"/><path d="m255.998 442.371c8.578 0 15.531 6.953 15.531 15.531v31.062c0 8.578-6.954 15.531-15.531 15.531-8.578 0-15.531-6.954-15.531-15.531v-31.062c-.001-8.578 6.953-15.531 15.531-15.531z"/></g><g><path d="m80.283 80.283c6.065-6.065 15.899-6.065 21.964 0l21.964 21.964c6.065 6.065 6.065 15.899 0 21.964-6.065 6.065-15.899 6.065-21.964 0l-21.964-21.964c-6.065-6.065-6.065-15.898 0-21.964z"/><path d="m387.783 387.783c6.065-6.065 15.899-6.065 21.964 0l21.964 21.964c6.065 6.065 6.065 15.899 0 21.964-6.065 6.065-15.899 6.065-21.964 0l-21.964-21.964c-6.065-6.065-6.065-15.899 0-21.964z"/></g><g><path d="m7.5 255.998c0-8.578 6.954-15.531 15.531-15.531h31.062c8.578 0 15.531 6.954 15.531 15.531 0 8.578-6.954 15.531-15.531 15.531h-31.062c-8.577 0-15.531-6.954-15.531-15.531z"/><path d="m442.371 255.998c0-8.578 6.954-15.531 15.531-15.531h31.062c8.578 0 15.531 6.954 15.531 15.531 0 8.578-6.954 15.531-15.531 15.531h-31.062c-8.578 0-15.531-6.954-15.531-15.531z"/></g><g><path d="m80.283 431.712c-6.065-6.065-6.065-15.899 0-21.964l21.964-21.964c6.065-6.065 15.899-6.065 21.964 0 6.065 6.065 6.065 15.899 0 21.964l-21.964 21.964c-6.065 6.065-15.898 6.065-21.964 0z"/><path d="m387.783 124.212c-6.065-6.065-6.065-15.899 0-21.964l21.964-21.964c6.065-6.065 15.899-6.065 21.964 0 6.065 6.065 6.065 15.899 0 21.964l-21.964 21.964c-6.065 6.065-15.899 6.065-21.964 0z"/></g></g></g><g><g><g><path d="m157.442 78.278c-4.445-11.613.389-24.348 12.464-30.091 11.466-5.453 25.683.555 30.092 12.465 4.416 11.93.628 24.863-12.464 30.091-13.37 5.338-26.38-2.769-30.092-12.465zm18.205-16.233c-4.197 1.413-6.041 6.402-4.346 10.493 2.297 4.347 5.795 5.796 10.493 4.346 4.346-2.297 5.795-5.795 4.346-10.493-1.392-3.56-6.392-5.726-10.493-4.346z"/></g><g><path d="m312.053 451.256c-4.445-11.613.388-24.348 12.464-30.091 11.466-5.453 25.683.555 30.092 12.465 4.416 11.93.628 24.863-12.464 30.091-13.37 5.338-26.38-2.769-30.092-12.465zm18.205-16.233c-4.197 1.413-6.041 6.402-4.346 10.493 2.297 4.347 5.795 5.796 10.493 4.346 4.346-2.297 5.795-5.795 4.346-10.493-1.392-3.56-6.392-5.726-10.493-4.346z"/></g></g><g><g><path d="m60.818 200.026c-11.355-5.069-16.942-17.492-12.464-30.091 4.252-11.964 18.553-17.769 30.092-12.464 11.558 5.313 18.025 17.137 12.464 30.091-5.679 13.229-20.612 16.697-30.092 12.464zm1.394-24.35c-1.969 3.967.255 8.798 4.347 10.493 4.698 1.449 8.196 0 10.493-4.347 1.449-4.698 0-8.195-4.346-10.493-3.503-1.532-8.57.471-10.494 4.347z"/></g><g><path d="m433.88 354.435c-11.355-5.069-16.942-17.492-12.464-30.091 4.252-11.964 18.553-17.769 30.092-12.464 11.558 5.313 18.025 17.137 12.464 30.091-5.679 13.229-20.612 16.696-30.092 12.464zm1.394-24.351c-1.969 3.967.255 8.798 4.347 10.493 4.698 1.449 8.196 0 10.493-4.347 1.449-4.698 0-8.195-4.346-10.493-3.503-1.532-8.571.472-10.494 4.347z"/></g></g><g><g><path d="m78.652 354.667c-11.613 4.445-24.348-.388-30.091-12.464-5.453-11.466.555-25.683 12.465-30.092 11.93-4.416 24.863-.628 30.091 12.464 5.339 13.37-2.768 26.38-12.465 30.092zm-16.233-18.205c1.413 4.197 6.402 6.041 10.493 4.346 4.347-2.297 5.796-5.795 4.346-10.493-2.297-4.346-5.795-5.795-10.493-4.346-3.559 1.392-5.726 6.392-4.346 10.493z"/></g><g><path d="m451.63 200.056c-11.613 4.445-24.348-.389-30.091-12.464-5.453-11.466.555-25.683 12.465-30.092 11.93-4.416 24.863-.628 30.091 12.464 5.339 13.37-2.768 26.38-12.465 30.092zm-16.233-18.205c1.413 4.197 6.402 6.041 10.493 4.346 4.347-2.297 5.796-5.795 4.346-10.493-2.297-4.346-5.795-5.795-10.493-4.346-3.559 1.392-5.726 6.392-4.346 10.493z"/></g></g><g><g><path d="m200.401 451.291c-5.069 11.355-17.492 16.942-30.091 12.464-11.964-4.252-17.769-18.553-12.464-30.092 5.313-11.558 17.137-18.025 30.091-12.464 13.229 5.679 16.696 20.612 12.464 30.092zm-24.351-1.394c3.967 1.969 8.798-.255 10.493-4.347 1.449-4.698 0-8.196-4.347-10.493-4.698-1.449-8.195 0-10.493 4.346-1.532 3.503.471 8.57 4.347 10.494z"/></g><g><path d="m354.81 78.229c-5.069 11.355-17.492 16.942-30.091 12.464-11.964-4.252-17.769-18.553-12.464-30.092 5.313-11.558 17.137-18.025 30.091-12.464 13.229 5.679 16.696 20.612 12.464 30.092zm-24.351-1.394c3.967 1.969 8.798-.255 10.493-4.347 1.449-4.698 0-8.196-4.347-10.493-4.698-1.449-8.195 0-10.493 4.346-1.532 3.503.471 8.571 4.347 10.494z"/></g></g><g><path d="m128.004 356.637c-22.777-28.932-34.817-63.732-34.817-100.639 0-89.774 73.036-162.81 162.81-162.81 36.907 0 71.708 12.04 100.639 34.817 3.255 2.563 3.816 7.278 1.254 10.532-2.563 3.255-7.278 3.816-10.532 1.254-26.261-20.675-57.854-31.603-91.361-31.603-81.503 0-147.81 66.307-147.81 147.81 0 33.507 10.928 65.1 31.603 91.361 2.562 3.254 1.981 7.944-1.254 10.532-3.413 2.732-9.052.626-10.532-1.254z"/></g><g><path d="m255.998 418.808c-38 0-74.973-13.363-104.109-37.627-3.183-2.65-3.615-7.38-.964-10.563 2.651-3.184 7.38-3.614 10.563-.964 26.447 22.024 60.011 34.153 94.511 34.153 33.507 0 65.1-10.928 91.361-31.603 3.253-2.562 7.97-2.001 10.532 1.254 2.562 3.254 2.001 7.97-1.254 10.532-28.933 22.779-63.734 34.818-100.64 34.818z"/></g><g><path d="m370.618 361.061c-3.162-2.676-3.615-7.38-.964-10.563 22.024-26.446 34.153-60.007 34.153-94.5s-12.129-68.054-34.153-94.5c-2.651-3.183-2.219-7.912.964-10.563 3.183-2.65 7.912-2.22 10.563.964 24.264 29.136 37.627 66.105 37.627 104.099s-13.579 74.785-37.627 104.099c-2.517 3.068-7.683 3.401-10.563.964z"/></g><g><g><path d="m255.998 77.125c-12.7 0-23.031-10.332-23.031-23.031v-31.063c0-12.7 10.332-23.031 23.031-23.031s23.031 10.332 23.031 23.031v31.062c0 12.7-10.332 23.032-23.031 23.032zm0-62.125c-4.428 0-8.031 3.603-8.031 8.031v31.062c0 4.428 3.603 8.031 8.031 8.031s8.031-3.603 8.031-8.031v-31.062c0-4.428-3.603-8.031-8.031-8.031z"/></g><g><path d="m255.998 511.995c-12.7 0-23.031-10.332-23.031-23.031v-31.062c0-12.7 10.332-23.031 23.031-23.031s23.031 10.332 23.031 23.031v31.062c0 12.7-10.332 23.031-23.031 23.031zm0-62.124c-4.428 0-8.031 3.603-8.031 8.031v31.062c0 4.428 3.603 8.031 8.031 8.031s8.031-3.603 8.031-8.031v-31.062c0-4.428-3.603-8.031-8.031-8.031z"/></g></g><g><g><path d="m96.944 129.515-21.964-21.964c-8.98-8.98-8.98-23.591 0-32.571s23.592-8.98 32.571 0l21.964 21.964c8.98 8.98 9.487 24.129 0 32.571-9.392 8.358-21.392 9.733-32.571 0zm-11.358-43.929c-3.235 3.024-3.131 8.227 0 11.358l21.964 21.964c3.132 3.131 8.227 3.13 11.358 0 3.131-3.131 3.131-8.227 0-11.358l-21.964-21.964c-3.756-3.713-8.321-2.838-11.358 0z"/></g><g><path d="m404.444 437.015-21.964-21.964c-8.98-8.98-8.98-23.591 0-32.571s23.592-8.979 32.571 0l21.964 21.964c8.98 8.98 9.039 23.65 0 32.571-8.258 8.15-20.851 9.65-32.571 0zm-11.358-43.929c-3.127 3.136-3.131 8.227 0 11.358l21.964 21.964c3.132 3.131 8.226 3.13 11.358 0 3.131-3.131 3.131-8.227 0-11.358l-21.964-21.964c-2.613-2.921-7.613-3.755-11.358 0z"/></g></g><g><g><path d="m54.093 279.029h-31.062c-12.699 0-23.031-10.332-23.031-23.031s10.332-23.031 23.031-23.031h31.062c12.7 0 23.031 10.332 23.031 23.031s-10.331 23.031-23.031 23.031zm-31.062-31.063c-4.428 0-8.031 3.603-8.031 8.031s3.603 8.031 8.031 8.031h31.062c4.428 0 8.031-3.603 8.031-8.031s-3.603-8.031-8.031-8.031z"/></g><g><path d="m488.964 279.029h-31.062c-12.7 0-23.031-10.332-23.031-23.031s10.332-23.031 23.031-23.031h31.062c12.7 0 23.031 10.332 23.031 23.031s-10.331 23.031-23.031 23.031zm-31.062-31.063c-4.428 0-8.031 3.603-8.031 8.031s3.603 8.031 8.031 8.031h31.062c4.428 0 8.031-3.603 8.031-8.031s-3.603-8.031-8.031-8.031z"/></g></g><g><g><path d="m91.265 443.75c-5.897 0-11.795-2.245-16.285-6.735-8.98-8.98-8.98-23.591 0-32.571l21.964-21.964c8.979-8.979 23.591-8.98 32.571 0s8.98 23.591 0 32.571l-21.964 21.964c-4.49 4.49-10.388 6.735-16.286 6.735zm16.286-50.664-21.964 21.964c-3.131 3.131-3.131 8.227 0 11.358 3.132 3.13 8.226 3.131 11.358 0l21.964-21.964c3.131-3.131 3.073-8.169 0-11.358-2.495-2.588-7.578-3.088-11.358 0z"/></g><g><path d="m398.765 136.25c-5.897 0-11.795-2.245-16.285-6.735-8.98-8.98-8.98-23.591 0-32.571l21.964-21.964c8.979-8.98 23.591-8.98 32.571 0s8.98 23.591 0 32.571l-21.964 21.964c-4.49 4.49-10.388 6.735-16.286 6.735zm16.286-50.664-21.964 21.964c-3.131 3.131-3.131 8.227 0 11.358 3.131 3.13 8.226 3.131 11.358 0l21.964-21.964c3.131-3.131 3.126-8.221 0-11.358-2.911-2.921-7.661-3.421-11.358 0z"/></g></g></g></g></svg>